<?xml version="1.0" encoding="UTF-8" standalone="no"?>
<!-- Created with Inkscape (http://www.inkscape.org/) -->

<svg
   xmlns:dc="http://purl.org/dc/elements/1.1/"
   xmlns:cc="http://creativecommons.org/ns#"
   xmlns:rdf="http://www.w3.org/1999/02/22-rdf-syntax-ns#"
   xmlns:svg="http://www.w3.org/2000/svg"
   xmlns="http://www.w3.org/2000/svg"
   xmlns:sodipodi="http://sodipodi.sourceforge.net/DTD/sodipodi-0.dtd"
   xmlns:inkscape="http://www.inkscape.org/namespaces/inkscape"
   width="210mm"
   height="297mm"
   viewBox="0 0 744.09448819 1052.3622047"
   id="svg2"
   version="1.1"
   inkscape:version="0.91 r13725"
   sodipodi:docname="donutREsaved.svg">
  <defs
     id="defs4" />
  <sodipodi:namedview
     id="base"
     pagecolor="#ffffff"
     bordercolor="#666666"
     borderopacity="1.0"
     inkscape:pageopacity="0.0"
     inkscape:pageshadow="2"
     inkscape:zoom="0.70413019"
     inkscape:cx="-59.176397"
     inkscape:cy="705.34761"
     inkscape:document-units="px"
     inkscape:current-layer="layer1"
     showgrid="false"
     inkscape:window-width="1680"
     inkscape:window-height="988"
     inkscape:window-x="-8"
     inkscape:window-y="-8"
     inkscape:window-maximized="1" />
  <metadata
     id="metadata7">
    <rdf:RDF>
      <cc:Work
         rdf:about="">
        <dc:format>image/svg+xml</dc:format>
        <dc:type
           rdf:resource="http://purl.org/dc/dcmitype/StillImage" />
        <dc:title></dc:title>
      </cc:Work>
    </rdf:RDF>
  </metadata>
  <g
     inkscape:label="Layer 1"
     inkscape:groupmode="layer"
     id="layer1">
    <g
       id="g4771"
       transform="translate(38.345178,-42.605757)">
      <path
         inkscape:connector-curvature="0"
         id="path4140"
         d="m 382.07878,139.08721 a 250,250 0 0 0 -250,250 250,250 0 0 0 250,250 250,250 0 0 0 250,-250 250,250 0 0 0 -62.32617,-164.85156 36.61993,36.61993 0 0 1 -6.79687,-2.29493 36.61993,36.61993 0 0 1 -20.26172,-24.10742 250,250 0 0 0 -3,-2.63476 62.324304,62.324304 0 0 1 -71.29492,14.49804 62.324304,62.324304 0 0 1 -36.01368,-65.21875 250,250 0 0 0 -0.93359,-0.20898 36.61993,36.61993 0 0 1 -34.67969,2.49609 36.61993,36.61993 0 0 1 -10.85156,-7.54101 250,250 0 0 0 -3.8418,-0.13672 z m 0,162.5 a 87.5,87.5 0 0 1 87.5,87.5 87.5,87.5 0 0 1 -87.5,87.5 87.5,87.5 0 0 1 -87.5,-87.5 87.5,87.5 0 0 1 87.5,-87.5 z"
         style="opacity:1;fill:#ffb380" />
      <path
         inkscape:connector-curvature="0"
         id="path4168"
         d="m 547.82878,320.88604 c -15.01185,-0.0153 -24.01543,11.32972 -29.6914,28.00976 2.05972,6.58172 3.62495,13.32062 4.63086,20.17188 4.79464,32.09545 -2.73796,65.32316 -19.56055,92.88476 -2.37928,12.59042 -6.08085,20.66921 -12.74805,20.53125 -0.79005,-0.0163 -1.55689,-0.085 -2.30468,-0.19726 -2.48992,2.79709 -5.08297,5.50362 -7.79688,8.08984 -28.86597,28.48155 -70.2524,44.4639 -110.8457,40.0293 -62.94982,-5.6155 -119.94961,-57.46203 -127.62891,-120.84375 -2.26608,-13.93875 -2.10226,-28.08174 0.16406,-41.89844 -6.76937,-6.58647 -16.09283,-10.80938 -29.14843,-11.03711 -12.23553,-0.21342 -20.41996,4.99287 -26.07618,13.26563 -7.2785,76.8197 33.95371,157.7639 103.97071,192.68359 63.37219,33.28268 145.06737,29.43813 203.37304,-12.48437 60.98953,-42.59447 95.43745,-121.55138 81.03516,-194.875 -1.45725,-8.54973 -3.53229,-16.97681 -6.16797,-25.22461 -5.62289,-5.70979 -12.54801,-9.09666 -21.20508,-9.10547 z"
         style="opacity:0.21000001;fill:#ffffff;stroke:none" />
      <path
         inkscape:connector-curvature="0"
         id="path4164"
         d="m 372.4323,118.8001 c -85.2652,2.91173 -167.61148,48.01754 -214.75586,119.5293 -29.85103,44.35956 -45.79016,97.47524 -45.97461,150.75976 a 12.50125,12.50125 0 0 0 0.004,0.3711 c 0.51771,19.72096 2.0134,40.38596 6.92968,57.60742 2.45815,8.61072 5.71174,16.49977 11.18946,23.08203 5.47771,6.58226 14.21067,11.60971 23.72461,11.61328 7.70306,0.003 15.26282,-4.34634 19.42773,-9.71289 4.16491,-5.36655 6.16322,-11.26818 7.72656,-17.46094 3.12669,-12.38551 4.14197,-26.65605 5.95899,-40.36719 1.81701,-13.71113 4.55941,-26.65817 8.77539,-34.47656 4.21597,-7.81839 7.35436,-10.79357 17.24219,-10.62109 12.92298,0.22541 18.67594,4.22314 23.68164,10.98242 5.00569,6.75928 8.31734,17.3749 10.37695,28.94336 2.05961,11.56846 2.92323,23.68521 5.05469,34.25586 1.06573,5.28532 2.28759,10.27591 5.41015,15.29687 3.12257,5.02096 10.16919,10.13377 17.45703,10.125 10.87836,-0.0131 20.74218,-3.78964 27.31836,-10.39843 6.57619,-6.6088 9.67575,-14.9302 11.34961,-23.04297 3.34773,-16.22554 1.66419,-33.50912 1.86329,-45.95508 a 12.50125,12.50125 0 0 0 0.002,-0.0723 c 0.239,-23.45536 12.89121,-47.17849 33.21484,-58.0332 a 12.50125,12.50125 0 0 0 0.30469,-0.16797 c 10.11526,-5.77037 21.88122,-8.90104 33.56836,-8.97656 a 12.50125,12.50125 0 0 0 0.22461,-0.004 c 34.30041,-0.838 67.34649,32.1472 66.67187,66.17969 a 12.50125,12.50125 0 0 0 0,0.42773 c -8.1e-4,-0.0568 -0.002,-0.0809 -0.002,-0.10546 l -0.002,0.15625 a 12.50125,12.50125 0 0 0 -0.002,0.0605 c -0.002,0.13218 -0.002,0.24792 -0.002,0.34961 a 12.50125,12.50125 0 0 0 0,0.0957 c 0.20309,23.12432 1.16879,46.84642 5.69922,66.3125 2.26521,9.73303 5.32837,18.52529 10.74219,25.92382 5.41382,7.39854 14.46107,13.29238 24.58984,13.50196 4.68911,0.097 9.62766,-1.74513 13.01953,-4.47852 3.39188,-2.73339 5.50351,-5.98711 7.11719,-9.25976 3.22735,-6.54532 4.73314,-13.6991 5.99219,-21.84766 2.51809,-16.29711 3.38816,-36.51566 5.125,-56.41406 1.73683,-19.89841 4.47216,-39.43883 9.34179,-52.38086 2.43482,-6.47102 5.35496,-11.10893 8.06836,-13.66992 2.7134,-2.561 4.83253,-3.54717 8.94922,-3.54297 8.8144,0.009 13.57986,4.29741 19.21094,15.48047 5.63108,11.18305 9.64297,28.16638 12.59375,45.60937 2.95078,17.44299 4.96894,35.2607 8.11328,49.73047 1.57217,7.23488 3.28891,13.6247 6.44336,19.48828 3.15445,5.86358 9.80376,12.71461 18.81055,12.76367 10.78391,0.0587 20.7457,-4.75573 26.82617,-11.96679 6.08047,-7.21107 8.90813,-15.83168 10.60352,-24.57813 3.3908,-17.49291 2.17111,-36.79703 1.93555,-50.98828 -0.13904,-57.6881 -18.53133,-115.27232 -53.66016,-161.5625 -0.79956,-1.07444 -1.62386,-2.12978 -2.43946,-3.19141 a 36.61993,36.61993 0 0 1 -36.13867,3.44922 36.61993,36.61993 0 0 1 -21.22266,-28.9414 62.324304,62.324304 0 0 1 -73.33203,16.69921 62.324304,62.324304 0 0 1 -35.92773,-66.08203 36.61993,36.61993 0 0 1 -35.69922,3.14844 36.61993,36.61993 0 0 1 -21.5,-33.64453 z"
         style="color:#000000;font-style:normal;font-variant:normal;font-weight:normal;font-stretch:normal;font-size:medium;line-height:normal;font-family:sans-serif;text-indent:0;text-align:start;text-decoration:none;text-decoration-line:none;text-decoration-style:solid;text-decoration-color:#000000;letter-spacing:normal;word-spacing:normal;text-transform:none;direction:ltr;block-progression:tb;writing-mode:lr-tb;baseline-shift:baseline;text-anchor:start;white-space:normal;clip-rule:nonzero;display:inline;overflow:visible;visibility:visible;opacity:1;isolation:auto;mix-blend-mode:normal;color-interpolation:sRGB;color-interpolation-filters:linearRGB;solid-color:#000000;solid-opacity:1;fill:#6c5353;fill-opacity:1;fill-rule:nonzero;stroke:none;stroke-width:25;stroke-linecap:round;stroke-linejoin:round;stroke-miterlimit:4;stroke-dasharray:none;stroke-dashoffset:0;stroke-opacity:1;color-rendering:auto;image-rendering:auto;shape-rendering:auto;text-rendering:auto;enable-background:accumulate" />
      <path
         inkscape:connector-curvature="0"
         id="path4145"
         d="m 364.38153,131.7376 c -78.10977,5.3882 -153.09625,47.94476 -196.30274,113.51758 -28.43765,42.23685 -43.70099,93.0445 -43.87695,143.87695 1.01098,38.51049 6.41254,80.12224 29.35352,80.13086 32.41072,0.0122 3.05358,-113.61859 59.34375,-112.63672 64.47717,1.12467 37.99901,99.63014 61.74804,99.60156 33.54077,-0.0404 27.6162,-40.17227 28.04688,-67.0957 0.28285,-27.75805 14.90109,-55.61933 39.82616,-68.93164 12.02729,-6.8611 25.83975,-10.52969 39.68165,-10.61914 42.04005,-1.02709 80.30331,37.11802 79.4746,78.92383 7.5e-4,0.0523 5e-4,0.10401 0,0.15625 -4.9e-4,0.0522 -9.4e-4,0.10404 -0.002,0.15625 l -0.002,0.1582 c -7.5e-4,0.0522 -0.002,0.10394 -0.002,0.15625 0.40054,45.60625 4.33145,92.84549 28.78906,93.35156 29.71268,0.61481 0.61394,-161.65546 57.36914,-161.59765 56.3785,0.0574 39.52513,142.93226 65.22658,143.07226 30.69077,0.16718 27.28249,-45.68718 26.79882,-74.82617 -0.0921,-53.18304 -16.50627,-106.35124 -47.68945,-149.57422 a 36.61993,45.723152 24.340636 0 1 -43.39062,12.83399 36.61993,45.723152 24.340636 0 1 -19.41993,-32.93164 62.324304,77.817287 24.340636 0 1 -77.98632,26.98828 62.324304,77.817287 24.340636 0 1 -31.27539,-76.36133 36.61993,45.723152 24.340636 0 1 -37.50196,7.12891 36.61993,45.723152 24.340636 0 1 -18.20898,-45.47852 z"
         style="opacity:1;fill:#916f6f;fill-opacity:1" />
      <path
         inkscape:connector-curvature="0"
         id="path4146"
         d="m 384.16082,193.0501 c -1.27288,-0.01 -2.54539,-0.007 -3.81835,0.01 -89.11839,-0.58115 -173.95691,68.63753 -190.39063,156.32227 -0.49425,2.31899 -0.9336,4.64674 -1.33398,6.98047 15.89597,-11.81711 39.678,-9.81508 55.21289,2.28906 11.49865,-49.46253 49.76455,-93.10635 99.70703,-105.62695 13.3235,-3.86319 27.2168,-5.65486 41.07812,-5.65625 56.49139,-0.21313 108.42791,38.94813 129.5293,90.46289 1.03335,-2.3682 2.1392,-4.71348 3.34961,-7.02734 8.33898,-14.06106 26.68713,-22.32727 42.35156,-15.97852 1.53542,0.55377 3.00325,1.20322 4.41602,1.92578 -11.33352,-28.1496 -29.30333,-53.66233 -51.84766,-73.96875 a 62.324304,85.211669 24.340636 0 1 -67.14258,17.14063 62.324304,85.211669 24.340636 0 1 -31.44531,-64.25586 c -9.79346,-1.64391 -19.72406,-2.53992 -29.66602,-2.61719 z"
         style="opacity:0.39100001;fill:#ffffff" />
      <rect
         style="opacity:1;fill:#00ff00;fill-opacity:1;stroke:none;stroke-width:25;stroke-linecap:round;stroke-linejoin:round;stroke-miterlimit:4;stroke-dasharray:none;stroke-opacity:1"
         id="rect4228"
         width="56.222683"
         height="14.725863"
         x="-159.56013"
         y="392.76984"
         ry="7.3629317"
         transform="matrix(0.77960224,-0.62627498,0.63765927,0.77031854,0,0)" />
      <rect
         style="opacity:1;fill:#ff0000;fill-opacity:1;stroke:none;stroke-width:25;stroke-linecap:round;stroke-linejoin:round;stroke-miterlimit:4;stroke-dasharray:none;stroke-opacity:1"
         id="rect4230"
         width="56.222683"
         height="14.725863"
         x="-210.6646"
         y="232.79646"
         ry="7.3629317"
         transform="matrix(0.27729225,-0.96078562,0.9647552,0.263149,0,0)" />
      <rect
         style="opacity:1;fill:#ffff00;fill-opacity:1;stroke:none;stroke-width:25;stroke-linecap:round;stroke-linejoin:round;stroke-miterlimit:4;stroke-dasharray:none;stroke-opacity:1"
         id="rect4232"
         width="56.222683"
         height="14.725863"
         x="113.6671"
         y="301.48651"
         ry="7.3629317"
         transform="matrix(0.77960224,-0.62627498,0.63765927,0.77031854,0,0)" />
      <rect
         style="opacity:1;fill:#ffff00;fill-opacity:1;stroke:none;stroke-width:25;stroke-linecap:round;stroke-linejoin:round;stroke-miterlimit:4;stroke-dasharray:none;stroke-opacity:1"
         id="rect4234"
         width="56.222683"
         height="14.725863"
         x="284.87585"
         y="321.8623"
         ry="7.3629317"
         transform="matrix(0.99499217,0.09995293,-0.08532634,0.99635306,0,0)" />
      <rect
         style="opacity:1;fill:#ff0000;fill-opacity:1;stroke:none;stroke-width:25;stroke-linecap:round;stroke-linejoin:round;stroke-miterlimit:4;stroke-dasharray:none;stroke-opacity:1"
         id="rect4236"
         width="56.222683"
         height="14.725863"
         x="379.80389"
         y="205.81783"
         ry="7.3629317"
         transform="matrix(0.99472055,0.10262076,-0.08799787,0.99612066,0,0)" />
      <rect
         style="opacity:1;fill:#0000ff;fill-opacity:1;stroke:none;stroke-width:25;stroke-linecap:round;stroke-linejoin:round;stroke-miterlimit:4;stroke-dasharray:none;stroke-opacity:1"
         id="rect4240"
         width="56.222683"
         height="14.725863"
         x="235.24083"
         y="604.97113"
         ry="7.3629317"
         transform="matrix(0.77960224,-0.62627498,0.63765927,0.77031854,0,0)" />
      <rect
         style="opacity:1;fill:#00ff00;fill-opacity:1;stroke:none;stroke-width:25;stroke-linecap:round;stroke-linejoin:round;stroke-miterlimit:4;stroke-dasharray:none;stroke-opacity:1"
         id="rect4242"
         width="56.222683"
         height="14.725863"
         x="82.537651"
         y="624.6264"
         ry="7.3629317"
         transform="matrix(0.77960224,-0.62627498,0.63765927,0.77031854,0,0)" />
      <rect
         style="opacity:1;fill:#00ff00;fill-opacity:1;stroke:none;stroke-width:25;stroke-linecap:round;stroke-linejoin:round;stroke-miterlimit:4;stroke-dasharray:none;stroke-opacity:1"
         id="rect4244"
         width="56.222683"
         height="14.725863"
         x="-231.99321"
         y="490.02069"
         ry="7.3629317"
         transform="matrix(0.19486429,-0.98083021,0.98358682,0.18043549,0,0)" />
      <rect
         inkscape:transform-center-y="1.2446042e-005"
         style="opacity:1;fill:#0000ff;fill-opacity:1;stroke:none;stroke-width:25;stroke-linecap:round;stroke-linejoin:round;stroke-miterlimit:4;stroke-dasharray:none;stroke-opacity:1"
         id="rect4246"
         width="56.222683"
         height="14.725863"
         x="-371.07648"
         y="-119.65545"
         ry="7.3629317"
         transform="matrix(-0.77325048,-0.6341007,0.62267373,-0.78248159,0,0)"
         inkscape:transform-center-x="-1.420201" />
      <rect
         style="opacity:1;fill:#0000ff;fill-opacity:1;stroke:none;stroke-width:25;stroke-linecap:round;stroke-linejoin:round;stroke-miterlimit:4;stroke-dasharray:none;stroke-opacity:1"
         id="rect4248"
         width="56.222683"
         height="14.725863"
         x="-357.16107"
         y="-11.143128"
         ry="7.3629317"
         transform="matrix(-0.77325048,-0.6341007,0.62267373,-0.78248159,0,0)"
         inkscape:transform-center-x="-1.4201935" />
      <rect
         inkscape:transform-center-y="1.3547943e-005"
         style="opacity:1;fill:#ff0000;fill-opacity:1;stroke:none;stroke-width:25;stroke-linecap:round;stroke-linejoin:round;stroke-miterlimit:4;stroke-dasharray:none;stroke-opacity:1"
         id="rect4250"
         width="56.222683"
         height="14.725863"
         x="-614.37769"
         y="41.209194"
         ry="7.3629317"
         transform="matrix(-0.77325048,-0.6341007,0.62267373,-0.78248159,0,0)"
         inkscape:transform-center-x="-1.4202072" />
      <rect
         style="opacity:1;fill:#00ff00;fill-opacity:1;stroke:none;stroke-width:25;stroke-linecap:round;stroke-linejoin:round;stroke-miterlimit:4;stroke-dasharray:none;stroke-opacity:1"
         id="rect4252"
         width="56.222683"
         height="14.725863"
         x="-421.41846"
         y="48.189156"
         ry="7.3629317"
         transform="matrix(-0.77325048,-0.6341007,0.62267373,-0.78248159,0,0)"
         inkscape:transform-center-x="-1.4201972" />
      <rect
         style="opacity:1;fill:#ffff00;fill-opacity:1;stroke:none;stroke-width:25;stroke-linecap:round;stroke-linejoin:round;stroke-miterlimit:4;stroke-dasharray:none;stroke-opacity:1"
         id="rect4254"
         width="56.222683"
         height="14.725863"
         x="-611.0517"
         y="127.44814"
         ry="7.3629317"
         transform="matrix(-0.77325048,-0.6341007,0.62267373,-0.78248159,0,0)"
         inkscape:transform-center-x="203.08742"
         inkscape:transform-center-y="-237.17204" />
      <rect
         style="opacity:1;fill:#00ff00;fill-opacity:1;stroke:none;stroke-width:25;stroke-linecap:round;stroke-linejoin:round;stroke-miterlimit:4;stroke-dasharray:none;stroke-opacity:1"
         id="rect4256"
         width="56.222683"
         height="14.725863"
         x="-441.73868"
         y="-45.586002"
         ry="7.3629317"
         transform="matrix(-0.79028425,-0.6127404,0.60106551,-0.79919976,0,0)"
         inkscape:transform-center-x="209.49073"
         inkscape:transform-center-y="-231.53562" />
      <rect
         inkscape:transform-center-y="-237.17205"
         inkscape:transform-center-x="203.08744"
         transform="matrix(-0.77325048,-0.6341007,0.62267373,-0.78248159,0,0)"
         ry="7.3629317"
         y="77.039734"
         x="-752.65985"
         height="14.725863"
         width="56.222683"
         id="rect4218"
         style="opacity:1;fill:#00ff00;fill-opacity:1;stroke:none;stroke-width:25;stroke-linecap:round;stroke-linejoin:round;stroke-miterlimit:4;stroke-dasharray:none;stroke-opacity:1" />
    </g>
  </g>
</svg>
